<svg xmlns="http://www.w3.org/2000/svg" xmlns:xlink="http://www.w3.org/1999/xlink" viewBox="0 0 1369.32 737.92"><defs><style>.cls-1{stroke-miterlimit:10;fill:url(#linear-gradient);stroke:url(#linear-gradient-2);}</style><linearGradient id="linear-gradient" x1="1033.59" y1="150.61" x2="85.22" y2="678.47" gradientUnits="userSpaceOnUse"><stop offset="0" stop-color="#2aa9ff"/><stop offset="1" stop-color="#f0f"/></linearGradient><linearGradient id="linear-gradient-2" y1="368.96" x2="1369.32" y2="368.96" gradientUnits="userSpaceOnUse"><stop offset="0" stop-color="#fff"/><stop offset="1"/></linearGradient></defs><title>bg</title><g id="Layer_2" data-name="Layer 2"><g id="Layer_1-2" data-name="Layer 1"><path class="cls-1" d="M154.64,716c8.76,4,17.53,8.58,27.18,9.79,16.12,2,31.64-5.42,46.53-11.61,83.67-34.78,183-33.68,265.77,2.94,13,5.75,26,12.43,40.22,13.83,17.12,1.67,33.85-4.46,50.33-9.17a317.68,317.68,0,0,1,193.14,6.64c10.68,3.87,21.41,8.37,32.82,8.93,18.67.91,35.81-8.74,52.51-16.72,83.1-39.69,184.7-42.43,270-7.28,11.28,4.64,22.61,10,34.87,10.76,10.4.65,20.67-2.07,30.69-4.75,51.25-13.74,96.86-28.07,146.94-29.24q10.27-.24,20.83.31V296.5s40-120-212-122,0,0-265,0S683.5.5,683.5.5H.5V688.41A309.89,309.89,0,0,1,154.64,716Z"/></g></g></svg>